<svg xmlns="http://www.w3.org/2000/svg" viewBox="0 0 64 64" fill="none">
  <!-- Ink stamp / chop seal: "Beautifully Said" — quill pen with flourish -->
  <circle cx="32" cy="32" r="29" stroke="currentColor" stroke-width="2.5" opacity="0.85"/>
  <circle cx="32" cy="32" r="26" stroke="currentColor" stroke-width="0.75" opacity="0.3"/>
  <!-- Quill / feather -->
  <path d="M36 18 C36 18 28 26 26 34 C25 38 26 42 26 42"
        stroke="currentColor" stroke-width="2" stroke-linecap="round" fill="none" opacity="0.8"/>
  <path d="M36 18 C38 17 42 18 42 22 C42 24 40 26 38 27 C36 28 34 28 33 29"
        fill="currentColor" opacity="0.6"/>
  <!-- Ink line / flourish -->
  <path d="M26 42 C28 43 32 42 36 40 C40 38 42 36 43 35"
        stroke="currentColor" stroke-width="1.5" stroke-linecap="round" fill="none" opacity="0.6"/>
  <!-- Sparkle dots -->
  <circle cx="40" cy="22" r="1" fill="currentColor" opacity="0.5"/>
  <circle cx="43" cy="33" r="0.8" fill="currentColor" opacity="0.4"/>
  <!-- Label -->
  <text x="32" y="55" text-anchor="middle" font-size="3.5" font-family="Georgia, serif" fill="currentColor" opacity="0.7" letter-spacing="0.6">BEAUTIFULLY SAID</text>
</svg>
