<svg xmlns="http://www.w3.org/2000/svg" viewBox="0 0 64 64" fill="none">
  <!-- Ink stamp / chop seal: "Felt" — a heart resonating -->
  <circle cx="32" cy="32" r="29" stroke="currentColor" stroke-width="2.5" opacity="0.85"/>
  <circle cx="32" cy="32" r="26" stroke="currentColor" stroke-width="0.75" opacity="0.3"/>
  <!-- Heart -->
  <path d="M32 44 C32 44 20 36 20 28 C20 24 23 21 27 21 C29.5 21 31.5 22.5 32 24 C32.5 22.5 34.5 21 37 21 C41 21 44 24 44 28 C44 36 32 44 32 44Z"
        fill="currentColor" opacity="0.8"/>
  <!-- Resonance rings -->
  <path d="M17 27 C16 24 17 20 20 18" stroke="currentColor" stroke-width="1.5" stroke-linecap="round" opacity="0.4"/>
  <path d="M47 27 C48 24 47 20 44 18" stroke="currentColor" stroke-width="1.5" stroke-linecap="round" opacity="0.4"/>
  <!-- Text arc at bottom -->
  <text x="32" y="55" text-anchor="middle" font-size="5.5" font-family="Georgia, serif" fill="currentColor" opacity="0.7" letter-spacing="1.5">FELT</text>
</svg>
