<svg xmlns="http://www.w3.org/2000/svg" viewBox="0 0 64 64" fill="none">
  <!-- Ink stamp / chop seal: "Holding Space" — cupped hands -->
  <circle cx="32" cy="32" r="29" stroke="currentColor" stroke-width="2.5" opacity="0.85"/>
  <circle cx="32" cy="32" r="26" stroke="currentColor" stroke-width="0.75" opacity="0.3"/>
  <!-- Open hands / bowl shape -->
  <path d="M20 34 C20 34 22 28 26 26 C28 25 30 26 30 28 L30 32"
        stroke="currentColor" stroke-width="2" stroke-linecap="round" fill="none" opacity="0.8"/>
  <path d="M44 34 C44 34 42 28 38 26 C36 25 34 26 34 28 L34 32"
        stroke="currentColor" stroke-width="2" stroke-linecap="round" fill="none" opacity="0.8"/>
  <!-- Cupping curve at bottom -->
  <path d="M20 34 C20 40 26 44 32 44 C38 44 44 40 44 34"
        stroke="currentColor" stroke-width="2" stroke-linecap="round" fill="none" opacity="0.8"/>
  <!-- Soft glow / warmth dot -->
  <circle cx="32" cy="35" r="3" fill="currentColor" opacity="0.25"/>
  <circle cx="32" cy="35" r="1.5" fill="currentColor" opacity="0.5"/>
  <!-- Label -->
  <text x="32" y="55" text-anchor="middle" font-size="4" font-family="Georgia, serif" fill="currentColor" opacity="0.7" letter-spacing="0.8">HOLDING SPACE</text>
</svg>
