<svg xmlns="http://www.w3.org/2000/svg" viewBox="0 0 64 64" fill="none">
  <!-- Ink stamp / chop seal: "I Cannot" — overwhelmed, mind-blown spiral -->
  <circle cx="32" cy="32" r="29" stroke="currentColor" stroke-width="2.5" opacity="0.85"/>
  <circle cx="32" cy="32" r="26" stroke="currentColor" stroke-width="0.75" opacity="0.3"/>
  <!-- Spiral from center outward (overwhelm/speechless) -->
  <path d="M32 30 C33 30 34 31 34 32 C34 34 32 35 30 35 C27 35 25 33 25 30 C25 26 28 23 32 23 C37 23 41 27 41 32 C41 38 36 43 30 43"
        stroke="currentColor" stroke-width="1.8" stroke-linecap="round" fill="none" opacity="0.75"/>
  <!-- Exclamation accents -->
  <line x1="20" y1="20" x2="22" y2="22" stroke="currentColor" stroke-width="1.5" stroke-linecap="round" opacity="0.5"/>
  <line x1="44" y1="20" x2="42" y2="22" stroke="currentColor" stroke-width="1.5" stroke-linecap="round" opacity="0.5"/>
  <line x1="20" y1="40" x2="22" y2="38" stroke="currentColor" stroke-width="1.5" stroke-linecap="round" opacity="0.5"/>
  <!-- Burst dots -->
  <circle cx="18" cy="18" r="1" fill="currentColor" opacity="0.4"/>
  <circle cx="46" cy="18" r="1" fill="currentColor" opacity="0.4"/>
  <circle cx="18" cy="42" r="1" fill="currentColor" opacity="0.4"/>
  <!-- Label -->
  <text x="32" y="55" text-anchor="middle" font-size="5" font-family="Georgia, serif" fill="currentColor" opacity="0.7" letter-spacing="1.2">I CANNOT</text>
</svg>
