<svg xmlns="http://www.w3.org/2000/svg" viewBox="0 0 64 64" fill="none">
  <!-- Ink stamp / chop seal: "From a Supporter" — star with radiating warmth (Plus exclusive) -->
  <circle cx="32" cy="32" r="29" stroke="currentColor" stroke-width="2.5" opacity="0.85"/>
  <circle cx="32" cy="32" r="26" stroke="currentColor" stroke-width="0.75" opacity="0.3"/>
  <!-- Five-pointed star -->
  <polygon
    points="32,17 35.5,26.5 45.5,26.5 37.5,33 40,43 32,37 24,43 26.5,33 18.5,26.5 28.5,26.5"
    fill="currentColor" opacity="0.75"/>
  <!-- Inner shine on star -->
  <polygon
    points="32,22 34,27.5 39.5,27.5 35,31.5 36.5,37 32,33.5 27.5,37 29,31.5 24.5,27.5 30,27.5"
    fill="currentColor" opacity="0.15"/>
  <!-- Radiating lines -->
  <line x1="32" y1="12" x2="32" y2="14" stroke="currentColor" stroke-width="1" stroke-linecap="round" opacity="0.4"/>
  <line x1="45" y1="17" x2="43.5" y2="18.5" stroke="currentColor" stroke-width="1" stroke-linecap="round" opacity="0.4"/>
  <line x1="19" y1="17" x2="20.5" y2="18.5" stroke="currentColor" stroke-width="1" stroke-linecap="round" opacity="0.4"/>
  <line x1="48" y1="32" x2="46" y2="32" stroke="currentColor" stroke-width="1" stroke-linecap="round" opacity="0.4"/>
  <line x1="16" y1="32" x2="18" y2="32" stroke="currentColor" stroke-width="1" stroke-linecap="round" opacity="0.4"/>
  <!-- Label -->
  <text x="32" y="55" text-anchor="middle" font-size="4" font-family="Georgia, serif" fill="currentColor" opacity="0.7" letter-spacing="0.5">FROM A SUPPORTER</text>
</svg>
